<svg width="88" height="62" viewBox="0 0 88 62" fill="none" xmlns="http://www.w3.org/2000/svg">
<path d="M16.4142 0.585786C15.6332 -0.195262 14.3668 -0.195262 13.5858 0.585786L0.857864 13.3137C0.0768156 14.0948 0.0768156 15.3611 0.857864 16.1421C1.63891 16.9232 2.90524 16.9232 3.68629 16.1421L15 4.82843L26.3137 16.1421C27.0948 16.9232 28.3611 16.9232 29.1421 16.1421C29.9232 15.3611 29.9232 14.0948 29.1421 13.3137L16.4142 0.585786ZM86.8892 57.6966C70.0516 58.6304 52.5652 57.742 39.3268 50.183C26.3154 42.7537 17 28.6251 17 2H13C13 29.6967 22.798 45.3514 37.3433 53.6567C51.6616 61.8323 70.1752 62.6297 87.1108 61.6904L86.8892 57.6966Z" fill="white"/>
</svg>
